# xmcd
#
# Track frame offsets: 
#        150
#        18273
#        35748
#        63197
#
# Disc length: 1952 seconds
#
# Revision: 4
# Processed by: cddbd v1.5.2PL0 Copyright (c) Steve Scherf et al.
# Submitted via: ExactAudioCopy v0.95a5
#
DISCID=2a079e04
DTITLE=Amy Winehouse - Back To Black (single)
DYEAR=2007
DGENRE=R&B
TTITLE0=Back To Black
TTITLE1=Valerie
TTITLE2=Hey Little Rich Girl
TTITLE3=Back To Black (video)
EXTD=
EXTT0=
EXTT1=
EXTT2=
EXTT3=
PLAYORDER=
